<svg width="1440" height="293" viewBox="0 0 1440 293" fill="none" xmlns="http://www.w3.org/2000/svg">
<g clip-path="url(#clip0_10770_236611)">
<rect width="1440" height="293" fill="#D1EFF8"/>
<mask id="mask0_10770_236611" style="mask-type:alpha" maskUnits="userSpaceOnUse" x="-332" y="-226" width="622" height="621">
<rect x="53.0703" y="-226" width="451.07" height="451.07" transform="rotate(58.372 53.0703 -226)" fill="#D9D9D9"/>
</mask>
<g mask="url(#mask0_10770_236611)">
<path d="M-157.577 201.646C-173.926 175.009 -178.544 146.565 -171.433 116.315C-164.321 86.0652 -147.486 62.7334 -120.928 46.32L-112.217 40.9362C-122.677 17.6024 -124.169 -6.4001 -116.691 -31.0714C-109.215 -55.741 -94.2835 -74.9938 -71.8957 -88.8299L5.38665 -136.592C9.47191 -139.117 13.7457 -139.847 18.2081 -138.782C22.6749 -137.717 26.1654 -135.136 28.6798 -131.039L49.2688 -97.4924L53.2557 -99.9564C56.6446 -102.051 60.191 -102.655 63.8948 -101.769C67.6013 -100.885 70.4981 -98.7427 72.5853 -95.3421C74.674 -91.9387 75.2763 -88.3801 74.3919 -84.666C73.5118 -80.9509 71.3773 -78.0462 67.9884 -75.9518L36.0931 -56.24C32.7043 -54.1456 29.1566 -53.5405 25.4501 -54.4246C21.7462 -55.3104 18.8499 -57.455 16.7611 -60.8583C14.674 -64.259 14.0705 -67.8168 14.9505 -71.5319C15.8349 -75.2459 17.9715 -78.1501 21.3604 -80.2445L25.3473 -82.7085L10.6146 -106.713L-57.1629 -64.8254C-74.7054 -53.9839 -85.8759 -38.435 -90.6744 -18.1788C-95.473 2.07736 -92.4703 21.0071 -81.6663 38.6105C-70.8623 56.2138 -55.3672 67.4231 -35.1811 72.2383C-14.995 77.0535 3.86923 74.0404 21.4116 63.1989L89.1892 21.3112L74.4564 -2.69335L70.4695 -0.22937C67.0807 1.86501 63.533 2.47013 59.8264 1.58597C56.1226 0.700165 53.2263 -1.4444 51.1375 -4.84771C49.0504 -8.24835 48.4468 -11.8062 49.3269 -15.5213C50.2113 -19.2353 52.3479 -22.1395 55.7368 -24.2339L87.6321 -43.9458C91.021 -46.0402 94.5673 -46.6444 98.2712 -45.7586C101.976 -44.8772 104.873 -42.7348 106.962 -39.3314C109.049 -35.9308 109.651 -32.3721 108.768 -28.6554C107.888 -24.9403 105.754 -22.0356 102.365 -19.9412L98.3779 -17.4772L118.964 16.0651C121.48 20.1645 122.207 24.4541 121.143 28.9336C120.084 33.4142 117.512 36.9168 113.427 39.4416L36.1444 87.2034C13.7565 101.039 -10.0966 105.756 -35.4149 101.354C-60.7359 96.9528 -81.4255 84.8152 -97.4838 64.9408L-106.195 70.3246C-126.13 82.6445 -138.768 100.132 -144.11 122.788C-149.452 145.444 -145.972 166.795 -133.668 186.842C-121.391 206.846 -103.978 219.537 -81.4298 224.916C-58.8815 230.294 -37.64 226.824 -17.7055 214.504L8.08586 198.564C5.55953 188.523 6.1833 178.587 9.95715 168.757C13.7294 158.925 20.1605 151.199 29.2507 145.582C40.5789 138.581 52.6526 136.611 65.4719 139.674C78.2896 142.734 88.1892 149.951 95.1709 161.327C102.151 172.7 104.115 184.812 101.064 197.665C98.0122 210.517 90.8224 220.444 79.4942 227.445C70.4041 233.063 60.6351 235.35 50.1873 234.305C39.7412 233.264 30.6183 229.352 22.8186 222.569L-2.97273 238.508C-29.5309 254.922 -57.8508 259.541 -87.9323 252.365C-118.014 245.189 -141.229 228.283 -157.577 201.646ZM37.5039 196.938C40.4128 201.678 44.5021 204.676 49.772 205.933C55.0418 207.19 60.0383 206.359 64.7615 203.44C69.4847 200.521 72.4713 196.419 73.7214 191.132C74.9741 185.844 74.146 180.83 71.2371 176.091C68.3282 171.351 64.2389 168.353 58.969 167.096C53.7018 165.837 48.7066 166.667 43.9834 169.586C39.2603 172.505 36.2723 176.609 35.0196 181.897C33.7669 187.185 34.595 192.199 37.5039 196.938Z" fill="#A9DBE9" fill-opacity="0.35"/>
</g>
<mask id="mask1_10770_236611" style="mask-type:alpha" maskUnits="userSpaceOnUse" x="0" y="-195" width="634" height="635">
<rect y="83.9121" width="451.07" height="451.07" transform="rotate(-38.0332 0 83.9121)" fill="#D9D9D9"/>
</mask>
<g mask="url(#mask1_10770_236611)">
<path d="M446.986 246.08C422.43 265.354 394.777 273.133 364.027 269.416C333.276 265.699 308.292 251.514 289.075 226.861L282.772 218.774C260.831 231.809 237.227 235.974 211.96 231.269C186.695 226.567 165.963 213.824 149.763 193.043L93.8425 121.304C90.8864 117.512 89.6866 113.332 90.2429 108.763C90.7998 104.19 92.9666 100.421 96.7432 97.4566L127.668 73.1827L124.783 69.4818C122.331 66.3361 121.337 62.867 121.801 59.0747C122.263 55.2799 124.061 52.1521 127.196 49.6915C130.334 47.2288 133.791 46.2313 137.567 46.6989C141.345 47.1621 144.459 48.9665 146.912 52.1123L169.991 81.7195C172.443 84.8653 173.438 88.3356 172.976 92.1304C172.512 95.9227 170.711 99.0502 167.574 101.513C164.439 103.973 160.983 104.972 157.206 104.509C153.429 104.042 150.314 102.235 147.862 99.0891L144.977 95.3882L122.849 112.758L171.892 175.673C184.586 191.957 201.23 201.362 221.826 203.887C242.421 206.413 260.832 201.306 277.06 188.569C293.288 175.831 302.66 159.129 305.177 138.462C307.693 117.795 302.605 99.3196 289.911 83.0356L240.868 20.1202L218.739 37.4897L221.624 41.1906C224.076 44.3364 225.071 47.8067 224.609 51.6015C224.145 55.3938 222.345 58.5213 219.207 60.9839C216.072 63.4446 212.616 64.4434 208.839 63.9802C205.062 63.5126 201.948 61.7059 199.496 58.5602L176.416 28.9529C173.964 25.8072 172.97 22.3381 173.434 18.5458C173.894 14.7529 175.692 11.6252 178.83 9.16256C181.965 6.70188 185.422 5.70436 189.201 6.17C192.978 6.63317 196.093 8.43763 198.545 11.5834L201.43 15.2843L232.351 -8.98671C236.13 -11.953 240.297 -13.1558 244.852 -12.5951C249.407 -12.0387 253.163 -9.86446 256.119 -6.07227L312.04 65.6661C328.24 86.4479 335.572 109.708 334.036 135.447C332.503 161.188 322.791 183.174 304.9 201.405L311.204 209.491C325.628 227.996 344.357 238.648 367.389 241.448C390.422 244.247 411.178 238.394 429.658 223.889C448.098 209.414 458.724 190.634 461.535 167.549C464.347 144.464 458.54 123.669 444.115 105.164L425.453 81.223C415.79 84.8625 405.881 85.3489 395.725 82.6822C385.567 80.0174 377.199 74.466 370.622 66.0279C362.425 55.5124 359.128 43.6921 360.731 30.5669C362.331 17.4437 368.374 6.76645 378.861 -1.46478C389.345 -9.69408 401.121 -13.0041 414.19 -11.395C427.258 -9.78582 437.891 -3.72346 446.088 6.79204C452.665 15.2301 456.02 24.7167 456.151 35.2518C456.285 45.785 453.429 55.3189 447.582 63.8534L466.244 87.7946C485.461 112.448 493.195 140.173 489.444 170.971C485.694 201.769 471.541 226.806 446.986 246.08ZM420.561 52.0685C424.93 48.639 427.443 44.2265 428.1 38.8312C428.757 33.4358 427.377 28.5459 423.959 24.1616C420.542 19.7772 416.145 17.2566 410.771 16.5998C405.394 15.9405 400.521 17.3256 396.152 20.7551C391.783 24.1847 389.269 28.5971 388.612 33.9925C387.953 39.3854 389.333 44.274 392.75 48.6584C396.168 53.0427 400.565 55.5645 405.942 56.2238C411.319 56.8831 416.192 55.498 420.561 52.0685Z" fill="#A9DBE9" fill-opacity="0.35"/>
</g>
<mask id="mask2_10770_236611" style="mask-type:alpha" maskUnits="userSpaceOnUse" x="341" y="-298" width="615" height="614">
<rect x="735.609" y="-298" width="451.07" height="451.07" transform="rotate(60.7639 735.609 -298)" fill="#D9D9D9"/>
</mask>
<g mask="url(#mask2_10770_236611)">
<path d="M504.999 120.459C489.773 93.1605 486.341 64.5483 494.705 34.6224C503.068 4.69658 520.859 -17.9098 548.077 -33.1966L557.004 -38.2109C547.523 -61.9625 547.031 -86.0065 555.529 -110.343C564.024 -134.678 579.743 -153.289 602.687 -166.175L681.888 -210.659C686.075 -213.011 690.376 -213.561 694.79 -212.311C699.208 -211.059 702.589 -208.334 704.93 -204.135L724.106 -169.756L728.192 -172.051C731.665 -174.001 735.234 -174.457 738.897 -173.417C742.564 -172.378 745.369 -170.116 747.313 -166.631C749.258 -163.143 749.712 -159.562 748.674 -155.889C747.64 -152.214 745.387 -149.401 741.914 -147.45L709.226 -129.091C705.753 -127.141 702.184 -126.685 698.517 -127.723C694.853 -128.763 692.049 -131.027 690.103 -134.515C688.159 -138 687.704 -141.58 688.738 -145.255C689.776 -148.929 692.032 -151.741 695.505 -153.692L699.591 -155.987L685.869 -180.587L616.409 -141.575C598.431 -131.477 586.623 -116.41 580.986 -96.3723C575.349 -76.3347 577.562 -57.2957 587.625 -39.2552C597.687 -21.2148 612.703 -9.36632 632.671 -3.7099C652.639 1.94653 671.612 -0.273956 689.59 -10.3714L759.051 -49.384L745.329 -73.9847L741.243 -71.6898C737.77 -69.7392 734.201 -69.2832 730.534 -70.3218C726.87 -71.3619 724.066 -73.6259 722.12 -77.1138C720.176 -80.5988 719.721 -84.1789 720.755 -87.8539C721.793 -91.5276 724.049 -94.3398 727.522 -96.2905L760.209 -114.649C763.682 -116.6 767.251 -117.055 770.914 -116.015C774.579 -114.979 777.385 -112.717 779.33 -109.23C781.274 -105.744 781.727 -102.164 780.691 -98.4872C779.657 -94.8122 777.404 -91.9994 773.931 -90.0487L769.845 -87.7539L789.018 -53.3786C791.362 -49.1773 791.909 -44.8612 790.66 -40.4301C789.415 -35.9977 786.7 -32.6059 782.513 -30.2544L703.312 14.2293C680.368 27.1157 656.339 30.8294 631.226 25.3704C606.11 19.9129 585.944 6.9193 570.726 -13.6103L561.798 -8.596C541.369 2.87832 528.014 19.8217 521.734 42.2342C515.454 64.6466 518.044 86.125 529.503 106.669C540.938 127.17 557.808 140.579 580.113 146.898C602.417 153.216 623.785 150.638 644.214 139.164L670.646 124.318C668.54 114.179 669.576 104.278 673.755 94.6151C677.933 84.9492 684.68 77.5001 693.996 72.2678C705.606 65.7474 717.751 64.2855 730.431 67.8822C743.111 71.4761 752.702 79.1021 759.204 90.7601C765.705 102.415 767.164 114.6 763.58 127.313C759.997 140.027 752.401 149.644 740.791 156.164C731.475 161.396 721.62 163.272 711.224 161.791C700.831 160.313 691.878 156.022 684.368 148.919L657.936 163.764C630.718 179.051 602.231 182.48 572.474 174.051C542.717 165.621 520.225 147.757 504.999 120.459ZM700.106 123.926C702.815 128.783 706.776 131.95 711.989 133.426C717.202 134.903 722.229 134.282 727.07 131.564C731.91 128.845 735.065 124.871 736.534 119.641C738.005 114.41 737.386 109.366 734.677 104.509C731.968 99.6515 728.007 96.4845 722.794 95.0078C717.583 93.5296 712.558 94.1498 707.718 96.8685C702.877 99.5871 699.721 103.562 698.25 108.793C696.778 114.024 697.397 119.068 700.106 123.926Z" fill="#A9DBE9" fill-opacity="0.35"/>
</g>
<mask id="mask3_10770_236611" style="mask-type:alpha" maskUnits="userSpaceOnUse" x="387" y="123" width="525" height="525">
<rect x="830.871" y="647.137" width="451.07" height="451.07" transform="rotate(-169.75 830.871 647.137)" fill="#D9D9D9"/>
</mask>
<g mask="url(#mask3_10770_236611)">
<path d="M651.181 204.415C681.859 209.982 706.046 225.519 723.744 251.026C741.442 276.532 747.516 304.686 741.966 335.485L740.145 345.588C764.442 353.349 783.247 368.257 796.561 390.314C809.875 412.367 814.193 436.376 809.514 462.339L793.363 551.964C792.51 556.702 790.198 560.382 786.43 563.006C782.657 565.632 778.412 566.517 773.694 565.661L735.059 558.65L734.225 563.274C733.517 567.204 731.598 570.257 728.468 572.433C725.338 574.612 721.815 575.346 717.898 574.635C713.979 573.924 710.936 571.998 708.771 568.858C706.602 565.721 705.871 562.187 706.579 558.257L713.245 521.268C713.953 517.338 715.873 514.283 719.003 512.104C722.133 509.928 725.657 509.195 729.577 509.907C733.493 510.617 736.536 512.541 738.705 515.679C740.871 518.819 741.599 522.354 740.891 526.284L740.058 530.908L767.704 535.925L781.868 457.322C785.534 436.978 781.454 418.253 769.628 401.145C757.801 384.038 741.751 373.645 721.477 369.966C701.203 366.287 682.543 370.382 665.494 382.249C648.446 394.117 638.089 410.223 634.423 430.567L620.259 509.169L647.905 514.186L648.738 509.562C649.446 505.632 651.365 502.578 654.496 500.398C657.625 498.222 661.15 497.49 665.07 498.201C668.986 498.912 672.029 500.836 674.198 503.974C676.363 507.114 677.092 510.649 676.384 514.579L669.718 551.568C669.01 555.498 667.091 558.551 663.961 560.727C660.834 562.907 657.31 563.641 653.391 562.93C649.474 562.219 646.432 560.294 644.263 557.153C642.094 554.015 641.364 550.482 642.072 546.551L642.905 541.928L604.275 534.918C599.553 534.061 595.886 531.74 593.272 527.956C590.654 524.173 589.773 519.913 590.626 515.175L606.777 425.551C611.456 399.587 623.879 378.617 644.047 362.639C664.216 346.658 687.033 339.302 712.499 340.571L714.32 330.469C718.486 307.35 713.947 286.234 700.702 267.118C687.458 248.003 669.292 236.351 646.205 232.161C623.166 227.981 602.126 232.519 583.083 245.775C564.04 259.032 552.435 277.219 548.269 300.337L542.879 330.248C552.016 335.063 558.972 342.162 563.747 351.544C568.524 360.926 569.963 370.888 568.063 381.43C565.696 394.567 559.097 404.902 548.267 412.436C537.44 419.97 525.477 422.549 512.375 420.171C499.277 417.795 488.979 411.176 481.479 400.317C473.98 389.457 471.414 377.459 473.781 364.321C475.681 353.779 480.505 344.954 488.255 337.845C496.001 330.735 504.994 326.531 515.233 325.231L520.623 295.321C526.173 264.521 541.651 240.278 567.056 222.593C592.462 204.908 620.503 198.848 651.181 204.415ZM524.448 353.313C518.989 352.322 514.034 353.376 509.584 356.474C505.133 359.573 502.414 363.86 501.427 369.338C500.44 374.815 501.491 379.786 504.579 384.249C507.666 388.715 511.939 391.443 517.398 392.434C522.856 393.424 527.811 392.37 532.261 389.272C536.712 386.177 539.43 381.891 540.417 376.413C541.404 370.936 540.354 365.964 537.267 361.498C534.179 357.032 529.906 354.303 524.448 353.313Z" fill="#A9DBE9" fill-opacity="0.35"/>
</g>
<mask id="mask4_10770_236611" style="mask-type:alpha" maskUnits="userSpaceOnUse" x="649" y="-194" width="621" height="621">
<rect x="1033.07" y="-194" width="451.07" height="451.07" transform="rotate(58.372 1033.07 -194)" fill="#D9D9D9"/>
</mask>
<g mask="url(#mask4_10770_236611)">
<path d="M819.035 233.646C802.687 207.009 798.068 178.565 805.18 148.315C812.291 118.065 829.126 94.7334 855.684 78.32L864.396 72.9362C853.935 49.6024 852.444 25.5999 859.922 0.928637C867.397 -23.741 882.329 -42.9938 904.717 -56.8299L981.999 -104.592C986.084 -107.117 990.358 -107.847 994.82 -106.782C999.287 -105.717 1002.78 -103.136 1005.29 -99.0388L1025.88 -65.4924L1029.87 -67.9564C1033.26 -70.0508 1036.8 -70.6551 1040.51 -69.7693C1044.21 -68.8851 1047.11 -66.7427 1049.2 -63.3421C1051.29 -59.9387 1051.89 -56.3801 1051 -52.666C1050.12 -48.9509 1047.99 -46.0462 1044.6 -43.9518L1012.71 -24.24C1009.32 -22.1456 1005.77 -21.5405 1002.06 -22.4246C998.359 -23.3104 995.462 -25.455 993.373 -28.8583C991.286 -32.259 990.683 -35.8168 991.563 -39.5319C992.447 -43.2459 994.584 -46.1501 997.973 -48.2445L1001.96 -50.7085L987.227 -74.7131L919.449 -32.8254C901.907 -21.9839 890.736 -6.435 885.938 13.8212C881.139 34.0774 884.142 53.0071 894.946 70.6105C905.75 88.2138 921.245 99.4231 941.431 104.238C961.617 109.054 980.482 106.04 998.024 95.1989L1065.8 53.3112L1051.07 29.3066L1047.08 31.7706C1043.69 33.865 1040.15 34.4701 1036.44 33.586C1032.73 32.7002 1029.84 30.5556 1027.75 27.1523C1025.66 23.7516 1025.06 20.1938 1025.94 16.4787C1026.82 12.7647 1028.96 9.86046 1032.35 7.76608L1064.24 -11.9458C1067.63 -14.0402 1071.18 -14.6444 1074.88 -13.7586C1078.59 -12.8772 1081.49 -10.7348 1083.57 -7.33145C1085.66 -3.9308 1086.26 -0.37212 1085.38 3.34459C1084.5 7.05966 1082.37 9.96439 1078.98 12.0588L1074.99 14.5228L1095.58 48.0651C1098.09 52.1645 1098.82 56.4541 1097.76 60.9336C1096.7 65.4142 1094.12 68.9168 1090.04 71.4416L1012.76 119.203C990.369 133.039 966.516 137.756 941.197 133.354C915.876 128.953 895.187 116.815 879.129 96.9408L870.417 102.325C850.483 114.644 837.844 132.132 832.502 154.788C827.16 177.444 830.641 198.795 842.944 218.842C855.221 238.846 872.634 251.537 895.183 256.916C917.731 262.294 938.972 258.824 958.907 246.504L984.698 230.564C982.172 220.523 982.796 210.587 986.569 200.757C990.342 190.925 996.773 183.199 1005.86 177.582C1017.19 170.581 1029.26 168.611 1042.08 171.674C1054.9 174.734 1064.8 181.951 1071.78 193.327C1078.76 204.7 1080.73 216.812 1077.68 229.665C1074.62 242.517 1067.43 252.444 1056.11 259.445C1047.02 265.063 1037.25 267.35 1026.8 266.305C1016.35 265.264 1007.23 261.352 999.431 254.569L973.64 270.508C947.081 286.922 918.762 291.541 888.68 284.365C858.598 277.189 835.383 260.283 819.035 233.646ZM1014.12 228.938C1017.03 233.678 1021.11 236.676 1026.38 237.933C1031.65 239.19 1036.65 238.359 1041.37 235.44C1046.1 232.521 1049.08 228.419 1050.33 223.132C1051.59 217.844 1050.76 212.83 1047.85 208.091C1044.94 203.351 1040.85 200.353 1035.58 199.096C1030.31 197.837 1025.32 198.667 1020.6 201.586C1015.87 204.505 1012.88 208.609 1011.63 213.897C1010.38 219.185 1011.21 224.199 1014.12 228.938Z" fill="#A9DBE9" fill-opacity="0.35"/>
</g>
<mask id="mask5_10770_236611" style="mask-type:alpha" maskUnits="userSpaceOnUse" x="980" y="-163" width="634" height="635">
<rect x="980" y="115.912" width="451.07" height="451.07" transform="rotate(-38.0332 980 115.912)" fill="#D9D9D9"/>
</mask>
<g mask="url(#mask5_10770_236611)">
<path d="M1423.59 278.08C1399.04 297.354 1371.38 305.133 1340.63 301.416C1309.88 297.699 1284.9 283.514 1265.68 258.861L1259.38 250.774C1237.44 263.809 1213.83 267.974 1188.57 263.269C1163.3 258.567 1142.57 245.824 1126.37 225.043L1070.45 153.304C1067.49 149.512 1066.29 145.332 1066.85 140.763C1067.41 136.19 1069.57 132.421 1073.35 129.457L1104.28 105.183L1101.39 101.482C1098.94 98.3361 1097.94 94.867 1098.41 91.0747C1098.87 87.2799 1100.67 84.1521 1103.8 81.6915C1106.94 79.2288 1110.4 78.2313 1114.17 78.6989C1117.95 79.1621 1121.07 80.9665 1123.52 84.1123L1146.6 113.72C1149.05 116.865 1150.05 120.336 1149.58 124.13C1149.12 127.923 1147.32 131.05 1144.18 133.513C1141.05 135.973 1137.59 136.972 1133.81 136.509C1130.04 136.042 1126.92 134.235 1124.47 131.089L1121.58 127.388L1099.46 144.758L1148.5 207.673C1161.19 223.957 1177.84 233.362 1198.43 235.887C1219.03 238.413 1237.44 233.306 1253.67 220.569C1269.9 207.831 1279.27 191.129 1281.78 170.462C1284.3 149.795 1279.21 131.32 1266.52 115.036L1217.48 52.1202L1195.35 69.4897L1198.23 73.1906C1200.68 76.3364 1201.68 79.8067 1201.22 83.6015C1200.75 87.3938 1198.95 90.5213 1195.81 92.9839C1192.68 95.4446 1189.22 96.4434 1185.45 95.9802C1181.67 95.5126 1178.56 93.7059 1176.1 90.5602L1153.02 60.9529C1150.57 57.8072 1149.58 54.3381 1150.04 50.5458C1150.5 46.7529 1152.3 43.6252 1155.44 41.1626C1158.57 38.7019 1162.03 37.7044 1165.81 38.17C1169.59 38.6332 1172.7 40.4376 1175.15 43.5834L1178.04 47.2843L1208.96 23.0133C1212.74 20.047 1216.9 18.8442 1221.46 19.4049C1226.01 19.9613 1229.77 22.1355 1232.73 25.9277L1288.65 97.6661C1304.85 118.448 1312.18 141.708 1310.64 167.447C1309.11 193.188 1299.4 215.174 1281.51 233.405L1287.81 241.491C1302.24 259.996 1320.96 270.648 1344 273.448C1367.03 276.247 1387.79 270.394 1406.27 255.889C1424.71 241.414 1435.33 222.634 1438.14 199.549C1440.95 176.464 1435.15 155.669 1420.72 137.164L1402.06 113.223C1392.4 116.862 1382.49 117.349 1372.33 114.682C1362.17 112.017 1353.81 106.466 1347.23 98.0279C1339.03 87.5124 1335.74 75.6921 1337.34 62.5669C1338.94 49.4437 1344.98 38.7664 1355.47 30.5352C1365.95 22.3059 1377.73 18.9959 1390.8 20.605C1403.87 22.2142 1414.5 28.2765 1422.7 38.792C1429.27 47.2301 1432.63 56.7167 1432.76 67.2518C1432.89 77.785 1430.04 87.3189 1424.19 95.8534L1442.85 119.795C1462.07 144.448 1469.8 172.173 1466.05 202.971C1462.3 233.769 1448.15 258.806 1423.59 278.08ZM1397.17 84.0685C1401.54 80.639 1404.05 76.2265 1404.71 70.8312C1405.36 65.4358 1403.98 60.5459 1400.57 56.1616C1397.15 51.7772 1392.75 49.2566 1387.38 48.5998C1382 47.9405 1377.13 49.3256 1372.76 52.7551C1368.39 56.1847 1365.88 60.5971 1365.22 65.9925C1364.56 71.3854 1365.94 76.274 1369.36 80.6584C1372.78 85.0427 1377.17 87.5645 1382.55 88.2238C1387.93 88.8831 1392.8 87.498 1397.17 84.0685Z" fill="#A9DBE9" fill-opacity="0.35"/>
</g>
<mask id="mask6_10770_236611" style="mask-type:alpha" maskUnits="userSpaceOnUse" x="1321" y="-266" width="615" height="614">
<rect x="1715.61" y="-266" width="451.07" height="451.07" transform="rotate(60.7639 1715.61 -266)" fill="#D9D9D9"/>
</mask>
<g mask="url(#mask6_10770_236611)">
<path d="M1481.61 152.459C1466.38 125.16 1462.95 96.5483 1471.31 66.6224C1479.68 36.6966 1497.47 14.0902 1524.68 -1.19663L1533.61 -6.21091C1524.13 -29.9625 1523.64 -54.0065 1532.14 -78.3431C1540.63 -102.678 1556.35 -121.289 1579.3 -134.175L1658.5 -178.659C1662.68 -181.011 1666.98 -181.561 1671.4 -180.311C1675.82 -179.059 1679.2 -176.334 1681.54 -172.135L1700.71 -137.756L1704.8 -140.051C1708.27 -142.001 1711.84 -142.457 1715.51 -141.417C1719.17 -140.378 1721.98 -138.116 1723.92 -134.631C1725.87 -131.143 1726.32 -127.562 1725.28 -123.889C1724.25 -120.214 1722 -117.401 1718.52 -115.45L1685.83 -97.0913C1682.36 -95.1407 1678.79 -94.6847 1675.13 -95.7233C1671.46 -96.7634 1668.66 -99.0274 1666.71 -102.515C1664.77 -106 1664.31 -109.58 1665.35 -113.255C1666.38 -116.929 1668.64 -119.741 1672.11 -121.692L1676.2 -123.987L1662.48 -148.587L1593.02 -109.575C1575.04 -99.4773 1563.23 -84.4099 1557.59 -64.3723C1551.96 -44.3347 1554.17 -25.2957 1564.23 -7.25523C1574.3 10.7852 1589.31 22.6337 1609.28 28.2901C1629.25 33.9465 1648.22 31.726 1666.2 21.6286L1735.66 -17.384L1721.94 -41.9847L1717.85 -39.6898C1714.38 -37.7392 1710.81 -37.2832 1707.14 -38.3218C1703.48 -39.3619 1700.67 -41.6259 1698.73 -45.1138C1696.78 -48.5988 1696.33 -52.1789 1697.36 -55.8539C1698.4 -59.5276 1700.66 -62.3398 1704.13 -64.2905L1736.82 -82.6494C1740.29 -84.6 1743.86 -85.0552 1747.52 -84.0151C1751.19 -82.9792 1753.99 -80.7174 1755.94 -77.2296C1757.88 -73.7445 1758.34 -70.1637 1757.3 -66.4872C1756.27 -62.8122 1754.01 -59.9994 1750.54 -58.0487L1746.45 -55.7539L1765.63 -21.3786C1767.97 -17.1773 1768.52 -12.8612 1767.27 -8.43005C1766.02 -3.99773 1763.31 -0.605865 1759.12 1.74561L1679.92 46.2293C1656.98 59.1157 1632.95 62.8294 1607.83 57.3704C1582.72 51.9129 1562.55 38.9193 1547.33 18.3897L1538.41 23.404C1517.98 34.8783 1504.62 51.8217 1498.34 74.2342C1492.06 96.6466 1494.65 118.125 1506.11 138.669C1517.55 159.17 1534.42 172.579 1556.72 178.898C1579.03 185.216 1600.39 182.638 1620.82 171.164L1647.25 156.318C1645.15 146.179 1646.18 136.278 1650.36 126.615C1654.54 116.949 1661.29 109.5 1670.6 104.268C1682.21 97.7474 1694.36 96.2855 1707.04 99.8822C1719.72 103.476 1729.31 111.102 1735.81 122.76C1742.31 134.415 1743.77 146.6 1740.19 159.313C1736.61 172.027 1729.01 181.644 1717.4 188.164C1708.08 193.396 1698.23 195.272 1687.83 193.791C1677.44 192.313 1668.49 188.022 1660.98 180.919L1634.54 195.764C1607.33 211.051 1578.84 214.48 1549.08 206.051C1519.33 197.621 1496.83 179.757 1481.61 152.459ZM1676.71 155.926C1679.42 160.783 1683.38 163.95 1688.6 165.426C1693.81 166.903 1698.84 166.282 1703.68 163.564C1708.52 160.845 1711.67 156.871 1713.14 151.641C1714.61 146.41 1713.99 141.366 1711.29 136.509C1708.58 131.651 1704.62 128.484 1699.4 127.008C1694.19 125.53 1689.17 126.15 1684.33 128.868C1679.49 131.587 1676.33 135.562 1674.86 140.793C1673.39 146.024 1674.01 151.068 1676.71 155.926Z" fill="#A9DBE9" fill-opacity="0.35"/>
</g>
<mask id="mask7_10770_236611" style="mask-type:alpha" maskUnits="userSpaceOnUse" x="1367" y="155" width="525" height="525">
<rect x="1810.87" y="679.137" width="451.07" height="451.07" transform="rotate(-169.75 1810.87 679.137)" fill="#D9D9D9"/>
</mask>
<g mask="url(#mask7_10770_236611)">
<path d="M1627.79 236.415C1658.47 241.982 1682.65 257.519 1700.35 283.026C1718.05 308.532 1724.12 336.686 1718.57 367.485L1716.75 377.588C1741.05 385.349 1759.86 400.257 1773.17 422.314C1786.48 444.367 1790.8 468.376 1786.12 494.339L1769.97 583.964C1769.12 588.702 1766.81 592.382 1763.04 595.006C1759.27 597.632 1755.02 598.517 1750.3 597.661L1711.67 590.65L1710.83 595.274C1710.13 599.204 1708.21 602.257 1705.08 604.433C1701.95 606.612 1698.42 607.346 1694.51 606.635C1690.59 605.924 1687.54 603.998 1685.38 600.858C1683.21 597.721 1682.48 594.187 1683.19 590.257L1689.85 553.268C1690.56 549.338 1692.48 546.283 1695.61 544.104C1698.74 541.928 1702.27 541.195 1706.19 541.907C1710.1 542.617 1713.14 544.541 1715.31 547.679C1717.48 550.819 1718.21 554.354 1717.5 558.284L1716.67 562.908L1744.31 567.925L1758.48 489.322C1762.14 468.978 1758.06 450.253 1746.24 433.145C1734.41 416.038 1718.36 405.645 1698.09 401.966C1677.81 398.287 1659.15 402.382 1642.1 414.249C1625.05 426.117 1614.7 442.223 1611.03 462.567L1596.87 541.169L1624.51 546.186L1625.35 541.562C1626.05 537.632 1627.97 534.578 1631.1 532.398C1634.23 530.222 1637.76 529.49 1641.68 530.201C1645.59 530.912 1648.64 532.836 1650.81 535.974C1652.97 539.114 1653.7 542.649 1652.99 546.579L1646.33 583.568C1645.62 587.498 1643.7 590.551 1640.57 592.727C1637.44 594.907 1633.92 595.641 1630 594.93C1626.08 594.219 1623.04 592.294 1620.87 589.153C1618.7 586.015 1617.97 582.482 1618.68 578.551L1619.51 573.928L1580.88 566.918C1576.16 566.061 1572.49 563.74 1569.88 559.956C1567.26 556.173 1566.38 551.913 1567.23 547.175L1583.39 457.551C1588.06 431.587 1600.49 410.617 1620.66 394.639C1640.82 378.658 1663.64 371.302 1689.11 372.571L1690.93 362.469C1695.09 339.35 1690.56 318.234 1677.31 299.118C1664.07 280.003 1645.9 268.351 1622.81 264.161C1599.77 259.981 1578.73 264.519 1559.69 277.775C1540.65 291.032 1529.04 309.219 1524.88 332.337L1519.49 362.248C1528.62 367.063 1535.58 374.162 1540.35 383.544C1545.13 392.926 1546.57 402.888 1544.67 413.43C1542.3 426.567 1535.71 436.902 1524.88 444.436C1514.05 451.97 1502.08 454.549 1488.98 452.171C1475.89 449.795 1465.59 443.176 1458.09 432.317C1450.59 421.457 1448.02 409.459 1450.39 396.321C1452.29 385.779 1457.11 376.954 1464.86 369.845C1472.61 362.735 1481.6 358.531 1491.84 357.231L1497.23 327.321C1502.78 296.521 1518.26 272.278 1543.66 254.593C1569.07 236.908 1597.11 230.848 1627.79 236.415ZM1501.06 385.313C1495.6 384.322 1490.64 385.376 1486.19 388.474C1481.74 391.573 1479.02 395.86 1478.04 401.338C1477.05 406.815 1478.1 411.786 1481.19 416.249C1484.27 420.715 1488.55 423.443 1494.01 424.434C1499.46 425.424 1504.42 424.37 1508.87 421.272C1513.32 418.177 1516.04 413.891 1517.03 408.413C1518.01 402.936 1516.96 397.964 1513.87 393.498C1510.79 389.032 1506.51 386.303 1501.06 385.313Z" fill="#A9DBE9" fill-opacity="0.35"/>
</g>
</g>
<defs>
<clipPath id="clip0_10770_236611">
<rect width="1440" height="293" fill="white"/>
</clipPath>
</defs>
</svg>
